<svg version="1.0" xmlns="http://www.w3.org/2000/svg"
 width="24" height="24" viewBox="0 0 299.000000 299.000000"
 preserveAspectRatio="xMidYMid meet">

<g transform="translate(0.000000,299.000000) scale(0.100000,-0.100000)"
fill="grey" stroke="grey">
<path d="M535 2980 c-243 -33 -444 -210 -512 -450 -17 -61 -18 -124 -18 -1035
0 -1077 -3 -1018 67 -1164 46 -95 169 -216 268 -265 138 -67 111 -66 1161 -66
909 0 949 1 1023 20 176 45 320 158 396 312 72 147 70 112 70 1163 0 1044 1
1017 -66 1155 -48 99 -169 220 -265 267 -146 71 -82 67 -1124 69 -517 1 -967
-2 -1000 -6z m1997 -188 c132 -53 231 -156 268 -280 20 -66 20 -85 18 -1043
l-3 -975 -37 -75 c-46 -93 -122 -168 -215 -212 l-68 -32 -975 -3 c-952 -2
-977 -2 -1041 18 -147 44 -265 174 -298 328 -8 37 -11 332 -11 980 0 1011 -1
987 57 1094 55 100 183 195 295 217 24 5 473 8 998 8 l955 -2 57 -23z"/>
<path d="M1573 2426 c-82 -20 -156 -62 -210 -119 -101 -106 -123 -185 -123
-439 l0 -178 -130 0 -130 0 0 -160 0 -160 130 0 130 0 0 -415 0 -415 195 0
195 0 0 415 0 415 133 0 132 0 36 160 36 160 -169 0 -168 0 1 133 c1 171 18
218 95 257 31 16 59 20 141 20 l103 0 0 170 0 170 -172 -1 c-101 0 -194 -6
-225 -13z"/>
</g>
</svg>
