<svg version="1.0" xmlns="http://www.w3.org/2000/svg"
 width="24" height="24" viewBox="0 0 299.000000 299.000000"
 preserveAspectRatio="xMidYMid meet">

<g transform="translate(0.000000,299.000000) scale(0.100000,-0.100000)"
fill="grey" stroke="grey">
<path d="M485 2974 c-218 -47 -401 -223 -462 -445 -17 -59 -18 -139 -18 -1034
0 -895 1 -975 18 -1034 57 -208 219 -372 432 -438 57 -17 117 -18 1035 -18
1071 0 1022 -3 1160 63 103 48 222 166 274 272 67 138 66 111 66 1155 0 1029
0 1014 -59 1142 -73 155 -207 271 -381 329 -52 18 -111 19 -1025 21 -829 1
-980 0 -1040 -13z m2055 -181 c111 -46 207 -142 253 -253 l22 -55 3 -965 c3
-875 1 -971 -14 -1028 -34 -128 -141 -246 -268 -294 l-61 -23 -980 0 -980 0
-57 23 c-117 47 -213 143 -260 260 l-23 57 -3 950 c-2 656 1 966 8 1002 34
161 172 305 328 342 20 5 466 8 1007 8 l970 -2 55 -22z"/>
<path d="M1175 2370 c-129 -5 -185 -12 -232 -27 -162 -54 -268 -171 -314 -347
-17 -64 -19 -115 -19 -494 0 -355 3 -435 16 -495 45 -197 179 -332 372 -373
99 -20 910 -20 1000 1 139 33 270 132 325 245 52 107 57 157 57 620 0 461 -4
497 -56 605 -35 72 -109 152 -176 192 -99 60 -167 70 -503 76 -165 2 -376 1
-470 -3z m672 -170 c186 -13 274 -62 327 -179 24 -54 27 -77 37 -253 6 -123 7
-289 1 -458 -8 -231 -12 -272 -30 -318 -39 -101 -98 -155 -203 -186 -41 -13
-121 -18 -349 -22 -329 -7 -579 5 -652 31 -68 24 -130 83 -164 157 l-29 63 0
455 c0 448 0 456 22 510 33 80 74 124 151 162 l67 33 340 5 c187 3 345 7 350
8 6 1 65 -3 132 -8z"/>
<path d="M1911 2056 c-32 -18 -50 -53 -51 -97 0 -76 83 -128 152 -95 74 36 88
129 27 180 -34 29 -88 34 -128 12z"/>
<path d="M1358 1931 c-120 -39 -226 -132 -281 -249 -30 -64 -32 -73 -32 -187
0 -113 2 -124 31 -185 78 -165 241 -270 419 -270 174 0 343 108 417 267 56
118 53 268 -7 389 -97 198 -339 301 -547 235z m235 -167 c61 -21 129 -82 161
-146 37 -73 37 -173 0 -246 -107 -215 -411 -215 -518 0 -37 73 -37 173 0 246
31 61 99 125 157 146 56 19 143 20 200 0z"/>
</g>
</svg>
