<svg version="1.0" xmlns="http://www.w3.org/2000/svg"
width="24" height="24" viewBox="0 0 300.000000 299.000000"
 preserveAspectRatio="xMidYMid meet">

<g transform="translate(0.000000,299.000000) scale(0.100000,-0.100000)"
fill="grey" stroke="grey">
<path d="M540 2980 c-246 -32 -454 -216 -515 -455 -23 -91 -23 -1961 0 -2061
37 -160 168 -325 316 -398 139 -68 110 -67 1192 -64 l972 3 74 27 c182 67 323
210 382 389 l24 74 0 1000 c0 1113 5 1024 -68 1170 -42 84 -171 211 -257 252
-146 71 -83 67 -1125 69 -517 1 -965 -2 -995 -6z m1932 -171 c131 -28 248
-121 309 -244 l34 -70 0 -1000 0 -1001 -37 -75 c-46 -93 -122 -168 -215 -212
l-68 -32 -974 -3 c-1067 -3 -1027 -5 -1130 56 -59 35 -130 108 -163 168 -58
108 -58 96 -58 1090 0 616 4 929 11 970 16 89 55 162 123 230 65 64 128 100
211 120 69 17 1879 19 1957 3z"/>
<path d="M860 2178 c-98 -67 -92 -219 10 -270 47 -24 117 -23 158 2 97 60 97
210 0 270 -47 28 -125 27 -168 -2z"/>
<path d="M790 1295 l0 -515 155 0 155 0 0 515 0 515 -155 0 -155 0 0 -515z"/>
<path d="M1748 1777 c-61 -23 -126 -66 -155 -102 -16 -19 -31 -35 -34 -35 -4
0 -10 29 -14 65 l-7 65 -145 0 -146 0 7 -52 c3 -29 6 -252 6 -495 l0 -443 160
0 160 0 0 315 c0 294 1 318 20 354 70 138 239 127 280 -17 6 -22 10 -164 10
-344 l0 -308 160 0 160 0 0 333 c0 258 -4 346 -15 395 -29 124 -91 209 -184
254 -57 28 -205 36 -263 15z"/>
</g>
</svg>
