<svg version="1.0" xmlns="http://www.w3.org/2000/svg"
 width="24" height="24" viewBox="0 0 299.000000 299.000000"
 preserveAspectRatio="xMidYMid meet">

<g transform="translate(0.000000,299.000000) scale(0.100000,-0.100000)"
fill="grey" stroke="grey">
<path d="M525 2979 c-238 -35 -435 -212 -502 -449 -17 -61 -18 -124 -18 -1035
0 -1078 -3 -1019 68 -1164 47 -98 169 -217 269 -265 141 -67 111 -66 1153 -66
1051 0 1016 -2 1163 70 158 79 280 237 317 415 22 104 22 1916 0 2020 -31 147
-133 295 -263 381 -31 21 -95 52 -142 68 l-85 31 -950 1 c-522 1 -977 -2
-1010 -7z m1947 -170 c59 -13 135 -49 187 -88 55 -42 119 -137 141 -210 20
-65 20 -88 18 -1042 l-3 -975 -38 -76 c-40 -83 -116 -162 -191 -200 -94 -48
-81 -48 -1092 -48 -930 0 -953 0 -1018 20 -122 38 -225 137 -278 268 l-23 57
-3 950 c-2 656 1 966 8 1002 25 118 123 249 228 302 99 50 82 50 1079 50 654
1 948 -2 985 -10z"/>
<path d="M1430 2380 c-205 -25 -375 -106 -523 -249 -286 -275 -354 -711 -167
-1057 l39 -72 -51 -166 c-43 -140 -49 -170 -40 -191 20 -44 49 -41 217 21 136
50 161 56 184 47 161 -68 209 -84 291 -99 305 -53 634 71 836 314 67 81 146
238 176 347 30 114 30 326 -1 440 -79 294 -299 528 -586 624 -76 25 -251 54
-297 50 -7 -1 -42 -5 -78 -9z m295 -145 c146 -39 308 -146 400 -263 62 -77
121 -199 146 -302 18 -72 21 -103 16 -210 -6 -144 -22 -204 -88 -331 -33 -63
-65 -105 -129 -170 -159 -160 -324 -229 -550 -229 -124 0 -227 25 -345 85 -49
25 -94 45 -99 45 -5 0 -58 -19 -118 -41 -60 -23 -110 -40 -112 -38 -2 2 12 51
30 109 18 58 33 114 33 125 1 12 -15 45 -33 74 -101 157 -139 369 -100 559 61
297 292 528 594 597 81 18 270 13 355 -10z"/>
<path d="M1164 1966 c-59 -26 -113 -119 -121 -206 -9 -98 39 -220 143 -367
106 -148 216 -242 367 -313 129 -60 201 -77 270 -61 30 6 74 26 97 42 49 36
90 115 90 175 0 40 -1 41 -72 82 -104 59 -166 84 -182 75 -8 -4 -35 -32 -61
-61 -39 -43 -52 -52 -71 -48 -43 11 -139 74 -192 126 -56 55 -122 146 -122
168 0 7 14 30 31 52 47 58 47 97 0 219 -22 58 -44 108 -48 112 -17 16 -98 19
-129 5z"/>
</g>
</svg>
